<?xml version="1.0" encoding="utf-8"?>
<svg xmlns="http://www.w3.org/2000/svg" viewBox="-0.5 -0.5 814 233" width="814px" height="233px">
  <defs>
    <linearGradient gradientUnits="userSpaceOnUse" x1="113.292" y1="16.909" x2="113.292" y2="211.997" id="gradient-1" gradientTransform="matrix(0.044386, 0.999015, -0.998697, 0.044373, 221.52048, 2.885013)">
      <stop offset="0" style="stop-color: rgb(0, 204, 153);"/>
      <stop offset="1" style="stop-color: rgb(0, 102, 204);"/>
    </linearGradient>
  </defs>
  <g>
    <path style="opacity: 1; fill: rgba(255, 255, 255, 0);" d="M -0.5,-0.5 C 270.833,-0.5 542.167,-0.5 813.5,-0.5C 813.5,77.1667 813.5,154.833 813.5,232.5C 542.167,232.5 270.833,232.5 -0.5,232.5C -0.5,154.833 -0.5,77.1667 -0.5,-0.5 Z"/>
  </g>
  <g>
    <path style="opacity: 1; paint-order: fill; fill: url(&quot;#gradient-1&quot;);" d="M 97.5,17.5 C 141.056,13.5329 174.889,29.5329 199,65.5C 218.075,104.368 215.075,141.368 190,176.5C 163.834,205.779 131.334,216.945 92.5,210C 59.3456,202.183 35.8456,182.683 22,151.5C 7.6201,109.197 16.1201,72.3641 47.5,41C 62.3154,29.0908 78.982,21.2574 97.5,17.5 Z"/>
  </g>
  <g>
    <path style="opacity: 1; fill: rgb(255, 255, 255);" d="M 120.5,29.5 C 155.6,33.1037 180.1,51.1037 194,83.5C 194.841,87.1202 194.174,90.4536 192,93.5C 186.281,99.6151 179.447,104.115 171.5,107C 137.898,117.732 103.898,119.232 69.5,111.5C 69.1634,85.0148 78.4967,62.5148 97.5,44C 104.556,38.1418 112.223,33.3085 120.5,29.5 Z"/>
  </g>
  <g>
    <path style="opacity: 1; fill: rgb(255, 255, 255);" d="M 87.5,31.5 C 88.2389,31.369 88.9056,31.5357 89.5,32C 74.8962,46.6963 65.0629,64.1963 60,84.5C 58.1785,92.1076 56.6785,99.7743 55.5,107.5C 47.7951,104.901 40.9618,100.901 35,95.5C 32.0312,90.7545 31.6979,85.7545 34,80.5C 45.0775,56.7239 62.9108,40.3906 87.5,31.5 Z"/>
  </g>
  <g>
    <path style="opacity: 1; fill: rgb(0, 102, 204);" d="M 555.5,44.5 C 566.858,43.018 571.358,47.6846 569,58.5C 563.631,64.6982 557.964,65.0316 552,59.5C 549.206,53.4076 550.373,48.4076 555.5,44.5 Z"/>
  </g>
  <g>
    <path style="opacity: 1; fill: rgb(0, 102, 204);" d="M 282.5,46.5 C 322.173,45.6718 340.339,65.0051 337,104.5C 331.883,129.778 316.383,142.444 290.5,142.5C 264.461,140.963 249.294,127.297 245,101.5C 242.201,72.3621 254.701,54.0287 282.5,46.5 Z"/>
  </g>
  <g>
    <path style="opacity: 1; fill: rgb(0, 204, 153);" d="M 579.5,47.5 C 602.833,47.5 626.167,47.5 649.5,47.5C 649.5,52.5 649.5,57.5 649.5,62.5C 640.833,62.5 632.167,62.5 623.5,62.5C 623.5,88.8333 623.5,115.167 623.5,141.5C 617.5,141.5 611.5,141.5 605.5,141.5C 605.5,115.167 605.5,88.8333 605.5,62.5C 596.833,62.5 588.167,62.5 579.5,62.5C 579.5,57.5 579.5,52.5 579.5,47.5 Z"/>
  </g>
  <g>
    <path style="opacity:1" fill="#069ab8" d="M 149.5,55.5 C 158.951,54.8046 165.451,58.8046 169,67.5C 170.141,77.3658 165.975,83.8658 156.5,87C 139.925,86.3587 134.425,78.1921 140,62.5C 142.529,59.1151 145.696,56.7818 149.5,55.5 Z"/>
  </g>
  <g>
    <path style="opacity: 1; fill: rgb(255, 255, 255);" d="M 285.5,62.5 C 307.323,61.988 318.99,72.6546 320.5,94.5C 319.026,119.478 306.026,129.645 281.5,125C 268.594,118.88 262.26,108.546 262.5,94C 262.829,77.8751 270.495,67.3751 285.5,62.5 Z"/>
  </g>
  <g>
    <path style="opacity: 1; fill: rgb(0, 102, 204);" d="M 420.5,72.5 C 432.578,68.149 443.078,70.4823 452,79.5C 453.927,82.9481 455.261,86.6148 456,90.5C 456.5,107.497 456.667,124.497 456.5,141.5C 451.167,141.5 445.833,141.5 440.5,141.5C 440.667,126.496 440.5,111.496 440,96.5C 436.805,86.6531 430.305,83.4864 420.5,87C 417.614,88.3845 415.614,90.5512 414.5,93.5C 413.732,94.2625 413.232,95.2625 413,96.5C 412.5,111.496 412.333,126.496 412.5,141.5C 406.833,141.5 401.167,141.5 395.5,141.5C 395.667,126.163 395.5,110.83 395,95.5C 390.784,86.0655 383.95,83.5655 374.5,88C 371.131,90.3649 368.964,93.5315 368,97.5C 367.5,112.163 367.333,126.83 367.5,141.5C 361.833,141.5 356.167,141.5 350.5,141.5C 350.5,118.5 350.5,95.5 350.5,72.5C 356.167,72.5 361.833,72.5 367.5,72.5C 367.336,75.1873 367.503,77.854 368,80.5C 372.61,74.027 378.943,70.6937 387,70.5C 396.926,70.2954 404.593,74.2954 410,82.5C 412.738,78.2595 416.238,74.9262 420.5,72.5 Z"/>
  </g>
  <g>
    <path style="opacity: 1; fill: rgb(0, 102, 204);" d="M 518.5,141.5 C 518.667,126.163 518.5,110.83 518,95.5C 516.281,88.8036 511.948,85.4702 505,85.5C 497.422,85.7777 492.422,89.4443 490,96.5C 489.5,111.496 489.333,126.496 489.5,141.5C 483.833,141.5 478.167,141.5 472.5,141.5C 472.5,118.5 472.5,95.5 472.5,72.5C 478.167,72.5 483.833,72.5 489.5,72.5C 489.337,74.8568 489.503,77.1902 490,79.5C 490.717,78.9558 491.217,78.2891 491.5,77.5C 493.191,76.1363 494.858,74.803 496.5,73.5C 509.734,67.677 521.234,70.0103 531,80.5C 533.133,84.2316 534.466,88.2316 535,92.5C 535.5,108.83 535.667,125.163 535.5,141.5C 529.833,141.5 524.167,141.5 518.5,141.5 Z"/>
  </g>
  <g>
    <path style="opacity: 1; fill: rgb(0, 204, 153);" d="M 672.5,71.5 C 701.304,69.3912 714.97,82.7245 713.5,111.5C 696.833,111.5 680.167,111.5 663.5,111.5C 665.413,125.635 673.413,131.135 687.5,128C 692.284,125.55 696.117,122.05 699,117.5C 703.581,119.873 708.081,122.373 712.5,125C 701.067,141.366 685.733,146.366 666.5,140C 649.995,131.148 643.495,117.314 647,98.5C 649.939,84.0654 658.439,75.0654 672.5,71.5 Z"/>
  </g>
  <g>
    <path style="opacity: 1; fill: rgb(0, 204, 153);" d="M 747.5,71.5 C 759.699,69.0823 769.866,72.4157 778,81.5C 778.498,78.5184 778.665,75.5184 778.5,72.5C 783.833,72.5 789.167,72.5 794.5,72.5C 794.5,103.5 794.5,134.5 794.5,165.5C 789.167,165.5 783.833,165.5 778.5,165.5C 778.667,154.495 778.5,143.495 778,132.5C 768.873,142.907 757.706,145.741 744.5,141C 730.121,133.925 723.454,122.259 724.5,106C 724.093,88.9498 731.759,77.4498 747.5,71.5 Z"/>
  </g>
  <g>
    <path style="opacity: 1; fill: rgb(0, 102, 204);" d="M 551.5,72.5 C 557.167,72.5 562.833,72.5 568.5,72.5C 568.5,95.5 568.5,118.5 568.5,141.5C 562.833,141.5 557.167,141.5 551.5,141.5C 551.5,118.5 551.5,95.5 551.5,72.5 Z"/>
  </g>
  <g>
    <path style="opacity: 1; fill: rgb(255, 255, 255);" d="M 697.5,97.5 C 686.346,98.4948 675.012,98.8281 663.5,98.5C 665.553,89.447 671.22,84.7804 680.5,84.5C 689.96,83.9679 695.627,88.3013 697.5,97.5 Z"/>
  </g>
  <g>
    <path style="opacity: 1; fill: rgb(255, 255, 255);" d="M 753.5,86.5 C 770.918,85.7513 779.085,94.0846 778,111.5C 773.291,126.44 763.791,130.94 749.5,125C 739,114.834 737.833,103.667 746,91.5C 748.479,89.6859 750.979,88.0192 753.5,86.5 Z"/>
  </g>
  <g>
    <path style="opacity: 1; fill: rgb(255, 255, 255);" d="M 30.5,107.5 C 38.0927,113.053 46.4261,117.386 55.5,120.5C 56.487,123.768 56.8204,127.102 56.5,130.5C 57.6252,154.269 66.6252,174.769 83.5,192C 67.7952,187.105 55.6286,178.605 47,166.5C 33.217,149.022 27.717,129.355 30.5,107.5 Z"/>
  </g>
  <g>
    <path style="opacity: 1; fill: rgb(255, 255, 255);" d="M 197.5,103.5 C 201.33,147.343 182.996,177.843 142.5,195C 135.132,197.218 127.632,198.718 120,199.5C 97.6156,190.782 82.2823,175.115 74,152.5C 70.8177,143.422 68.9844,134.089 68.5,124.5C 92.6873,128.78 117.021,129.613 141.5,127C 158.565,124.737 174.565,119.403 189.5,111C 192.666,109 195.332,106.5 197.5,103.5 Z"/>
  </g>
</svg>